<?xml version="1.0" standalone="no"?>
<!DOCTYPE svg PUBLIC "-//W3C//DTD SVG 20010904//EN"
 "http://www.w3.org/TR/2001/REC-SVG-20010904/DTD/svg10.dtd">
<svg version="1.0" xmlns="http://www.w3.org/2000/svg"
 width="602.000000pt" height="602.000000pt" viewBox="0 0 602.000000 602.000000"
 preserveAspectRatio="xMidYMid meet">
<metadata>
Created by potrace 1.11, written by Peter Selinger 2001-2013
</metadata>
<g transform="translate(0.000000,602.000000) scale(0.100000,-0.100000)"
fill="#000000" stroke="none">
<path d="M0 3938 c0 -1132 2 -2058 4 -2058 3 0 525 520 1162 1155 636 635
1160 1155 1163 1155 4 0 41 -35 84 -78 l77 -78 -169 -169 -169 -169 50 -48
c106 -103 127 -258 51 -381 -13 -20 -489 -503 -1057 -1071 l-1034 -1034 -81
82 -81 81 0 -653 0 -652 23 -1 c12 0 329 -1 705 -1 l684 -1 1095 1097 c602
603 1098 1096 1102 1096 3 0 42 -35 85 -79 l78 -79 -1012 -1012 c-556 -556
-1009 -1014 -1006 -1017 2 -3 48 -5 102 -5 l96 0 964 963 964 964 82 -82 82
-82 -877 -877 c-483 -482 -876 -878 -874 -881 3 -2 36 -4 73 -5 142 -1 112
-19 345 213 226 226 264 253 363 263 96 8 203 -36 264 -110 l31 -37 434 435
c239 239 439 443 445 454 25 47 -14 104 -72 104 -26 0 -83 -53 -439 -408 -224
-224 -413 -406 -419 -404 -6 2 -44 37 -84 78 l-73 76 413 412 c456 456 459
458 580 462 234 9 388 -229 286 -441 -15 -30 -179 -201 -545 -568 -289 -289
-525 -526 -525 -528 0 -2 48 -3 107 -2 l106 1 796 795 c438 437 955 951 1149
1142 323 319 352 351 352 381 0 25 -9 43 -36 70 l-36 37 -526 -525 -527 -525
-81 82 -81 83 694 694 693 693 0 102 c0 57 -3 103 -6 103 -4 0 -56 -49 -117
-110 -60 -60 -113 -110 -116 -110 -4 0 -41 35 -84 78 l-78 79 200 200 201 201
0 109 0 108 -256 -255 c-242 -242 -283 -288 -278 -317 1 -7 2 -17 3 -21 0 -5
13 -22 27 -38 84 -94 102 -243 41 -359 -8 -17 -206 -221 -438 -454 -463 -463
-473 -470 -589 -478 -178 -13 -323 122 -324 300 0 133 -1 132 464 598 l412
412 81 -81 82 -82 -407 -408 c-309 -308 -409 -414 -414 -437 -8 -44 26 -85 72
-85 33 0 62 27 454 418 272 273 421 428 426 446 5 22 -2 40 -39 94 -59 88 -71
128 -64 219 4 55 12 85 33 120 15 27 176 196 371 391 l343 345 0 982 0 982
-517 0 -518 1 -113 -111 -112 -112 136 -136 136 -136 -71 -72 c-40 -39 -75
-71 -79 -71 -4 0 -66 60 -139 132 l-133 133 -965 -965 c-820 -820 -965 -970
-965 -993 0 -41 15 -63 51 -76 26 -9 37 -8 57 5 14 9 430 421 924 915 l899
899 79 -80 c44 -43 80 -81 80 -84 0 -2 -412 -416 -916 -920 -855 -854 -920
-917 -972 -936 -161 -61 -326 6 -396 160 -15 33 -20 66 -20 125 -1 68 3 88 27
133 21 41 259 284 1080 1106 578 579 1058 1060 1065 1068 11 14 -3 15 -129 14
l-141 -1 -12 -36 c-7 -20 -22 -52 -34 -70 -12 -19 -249 -261 -527 -539 l-505
-504 -83 82 -82 82 493 493 493 494 -107 0 -107 1 -964 -965 -965 -965 -79 78
c-44 43 -79 81 -79 85 0 3 394 400 875 881 481 482 875 878 875 881 0 3 -46 5
-102 5 l-103 -1 -724 -721 c-397 -396 -731 -734 -741 -749 -14 -23 -16 -35 -7
-62 10 -34 9 -36 -60 -105 -38 -38 -73 -70 -77 -70 -12 0 -66 94 -77 133 -6
22 -13 37 -16 34 -10 -10 -108 25 -150 54 -137 94 -169 285 -72 424 40 58 848
860 884 877 127 62 286 34 372 -68 l38 -44 149 149 149 149 -104 0 -104 0 -66
-65 -66 -64 -65 64 -66 65 -141 -1 -141 0 -557 -558 -558 -558 -83 82 -82 82
477 477 476 476 -107 -1 -108 -1 -422 -423 -422 -422 -82 82 -82 82 342 342
341 342 -109 -1 -109 -2 -283 -283 c-156 -156 -287 -283 -291 -283 -3 0 -42
35 -85 79 l-78 78 201 201 c111 111 201 203 201 205 0 2 -182 4 -405 4 l-405
0 0 -2059z m5535 1722 l80 -80 -122 -122 -122 -122 -82 82 -82 83 119 119 c65
66 121 120 124 120 3 -1 41 -37 85 -80z m-350 -350 l80 -80 -1125 -1125 -1125
-1125 -82 82 -83 83 1122 1122 c618 618 1125 1123 1128 1123 3 0 41 -36 85
-80z m163 -167 c25 -37 52 -97 52 -117 0 -10 13 -18 37 -22 210 -39 320 -271
216 -452 -15 -26 -454 -473 -1060 -1079 l-1035 -1035 -79 78 c-44 43 -79 82
-79 85 0 4 462 468 1026 1031 608 606 1032 1036 1040 1056 13 28 12 36 0 61
-9 16 -23 31 -31 35 -54 20 -34 40 -1108 -1034 l-1041 -1040 -81 80 -82 81
1028 1029 c672 672 1030 1037 1035 1055 3 14 2 36 -4 48 -9 19 -2 30 61 95 39
39 75 72 79 72 3 0 15 -12 26 -27z m-2674 -1987 c148 -73 209 -253 137 -407
-32 -67 -1909 -1943 -1983 -1981 -74 -39 -150 -44 -235 -16 -189 62 -266 291
-154 459 17 24 452 466 968 981 1053 1052 995 1001 1140 994 53 -2 86 -10 127
-30z m395 -429 c36 -81 37 -82 62 -85 69 -8 155 -64 199 -126 72 -106 72 -246
-1 -351 -15 -22 -253 -265 -528 -540 l-500 -499 -83 82 -83 82 519 519 c513
514 519 520 512 553 -10 55 -64 84 -106 58 -8 -5 -480 -474 -1048 -1042
l-1032 -1032 -83 82 -82 82 1027 1028 c565 565 1031 1038 1036 1051 5 15 5 35
-1 52 -10 26 -6 32 62 99 67 67 74 71 90 56 10 -9 28 -40 40 -69z m1111 -278
c0 -3 -52 -59 -116 -123 -128 -130 -112 -126 -188 -51 -80 79 -84 62 50 196
l119 119 67 -67 c38 -37 68 -70 68 -74z"/>
<path d="M1563 2017 c-595 -594 -955 -961 -958 -976 -10 -53 45 -102 95 -86
26 8 1910 1894 1921 1923 10 27 -10 76 -36 86 -56 21 -32 44 -1022 -947z"/>
<path d="M1982 5208 c-232 -233 -425 -433 -428 -444 -9 -34 21 -81 55 -89 17
-3 38 -2 48 4 10 5 206 198 436 428 452 454 446 445 392 498 -53 54 -44 60
-503 -397z"/>
<path d="M1975 3508 c-11 -6 -460 -450 -997 -987 l-978 -976 0 -109 0 -110
1035 1035 c569 568 1038 1044 1041 1057 17 63 -46 119 -101 90z"/>
<path d="M5965 2601 c-3 -5 -1 -12 5 -16 5 -3 10 1 10 9 0 18 -6 21 -15 7z"/>
<path d="M5417 1517 l-558 -552 135 -135 136 -135 -75 -75 -75 -75 -135 135
-135 135 -395 -395 c-217 -217 -392 -396 -390 -398 3 -3 49 -5 103 -4 l98 0
293 293 292 292 81 -82 81 -83 -209 -209 c-237 -237 -229 -211 -65 -211 l74 1
459 458 458 458 81 -82 82 -81 -169 -169 -170 -169 52 -52 c68 -67 93 -131 90
-227 -2 -38 -8 -81 -13 -95 -6 -14 -12 -29 -14 -34 -4 -9 438 -13 447 -4 2 3
3 464 2 1026 l-3 1021 -558 -552z"/>
<path d="M2958 152 c-70 -69 -126 -127 -124 -130 4 -3 107 -5 178 -3 41 1 178
140 178 180 0 41 -30 74 -70 77 -31 2 -45 -9 -162 -124z"/>
<path d="M5250 250 c-25 -7 -245 -219 -236 -228 3 -2 49 -4 102 -4 l96 0 60
58 c61 62 74 87 64 129 -8 31 -52 55 -86 45z"/>
</g>
</svg>
