<svg id="Logo_color" xmlns="http://www.w3.org/2000/svg" width="143.333" height="70.447" viewBox="0 0 143.333 70.447">
  <g id="Group_4" data-name="Group 4" transform="translate(73.297)">
    <path id="Path_3" data-name="Path 3" d="M443.719,260.357h2.272v-28.23a2.984,2.984,0,0,0-3.008-3,2.983,2.983,0,0,1-3.735,0,2.973,2.973,0,0,1-3.736.19v2.074a.74.74,0,0,1,.737.736l-.039,26.765v35.853h2.273V266.323a.732.732,0,1,1,1.464,0v28.421h2.271v-28.23a2.9,2.9,0,0,0-.388-1.466,2.979,2.979,0,0,0-2.612-1.535,2.853,2.853,0,0,0-.735.1l.037-3.253V231.936a.733.733,0,0,1,.729-.736.74.74,0,0,1,.736.736v28.421h2.272V231.936a.732.732,0,0,1,.727-.736.74.74,0,0,1,.736.736Z" transform="translate(-435.512 -224.504)"/>
    <path id="Path_4" data-name="Path 4" d="M466.3,259.786a2.986,2.986,0,0,0,1.749.57v-2.082a.757.757,0,0,1-.6-.308.7.7,0,0,1-.135-.42v-25.42a3,3,0,0,0-1.3-2.47,2.474,2.474,0,0,0-.5-.277.026.026,0,0,0-.016-.007,3,3,0,0,0-4.187,2.755v10.882h2.263V231.935a.74.74,0,0,1,.735-.736.751.751,0,0,1,.691.475.718.718,0,0,1,.047.261v11.958a2.853,2.853,0,0,0-.738-.094,3,3,0,0,0-3,3v10.748a3.017,3.017,0,0,0,3,3.015,2.675,2.675,0,0,0,.618-.071A2.986,2.986,0,0,0,466.3,259.786Zm-1.987-1.314a.74.74,0,0,1-.735-.736V246.609a.737.737,0,0,1,1.473-.017v11.144A.741.741,0,0,1,464.315,258.472Z" transform="translate(-449.389 -224.503)"/>
    <path id="Path_5" data-name="Path 5" d="M482.675,245.858V232.127a2.96,2.96,0,0,0-.4-1.489,2.992,2.992,0,0,0-2.6-1.512,2.928,2.928,0,0,0-1.48.395,2.96,2.96,0,0,0-.507.366,3.043,3.043,0,0,0-1.463-.554c-.1-.009-.19-.016-.286-.016v2.074a.744.744,0,0,1,.229.038.728.728,0,0,1,.5.7v28.23h2.272V231.936a.732.732,0,1,1,1.465,0v13.922Z" transform="translate(-457.255 -224.504)"/>
    <path id="Path_6" data-name="Path 6" d="M499.676,252.761a2.958,2.958,0,0,0,.062-.593V227.483h-2.271v24.875a.733.733,0,0,1-.728.736.745.745,0,0,1-.736-.736V226.012h3.736v-2.074H496v-4.812h-2.27v33.043a2.535,2.535,0,0,0,.086.7,2.99,2.99,0,0,0,2.406,2.271,2.609,2.609,0,0,0,.507.048,2.875,2.875,0,0,0,.586-.056A3.012,3.012,0,0,0,499.676,252.761Z" transform="translate(-466.823 -219.125)"/>
    <rect id="Rectangle_1" data-name="Rectangle 1" width="2.271" height="31.04" transform="translate(34.403 4.813)"/>
    <rect id="Rectangle_2" data-name="Rectangle 2" width="2.271" height="3.348" transform="translate(34.403)"/>
    <path id="Path_7" data-name="Path 7" d="M458.028,304.119a2.963,2.963,0,0,0-1.662-.585.649.649,0,0,0-.126-.008,3,3,0,0,0-3,3v25.42a3.023,3.023,0,0,0,1.021,2.263,2.981,2.981,0,0,0,3.839.1,3.047,3.047,0,0,0,1.147-2.366v-25.42A3.007,3.007,0,0,0,458.028,304.119Zm-1.053,28.018a.739.739,0,0,1-.736.736.732.732,0,0,1-.727-.736v-25.8a.732.732,0,0,1,.727-.735.693.693,0,0,1,.261.047.748.748,0,0,1,.474.688v25.8Z" transform="translate(-445.047 -264.516)"/>
    <path id="Path_8" data-name="Path 8" d="M471.6,303.526a2.975,2.975,0,0,1-3.736.19v2.074a.74.74,0,0,1,.736.737v28.23h2.264V306.336a.736.736,0,0,1,1.471,0v13.922H474.6v-13.73A3,3,0,0,0,471.6,303.526Z" transform="translate(-452.91 -264.516)"/>
    <path id="Path_9" data-name="Path 9" d="M489.389,332.169a.727.727,0,0,1-.728.728h-.734V303.938h-2.272v31.04h3.006a3.01,3.01,0,0,0,3-3.008V303.938h-2.272Z" transform="translate(-462.478 -264.738)"/>
    <path id="Path_10" data-name="Path 10" d="M507.876,331.948v-25.42a3,3,0,0,0-6.007,0v10.882h2.272V306.336a.732.732,0,1,1,1.464,0v11.958a2.81,2.81,0,0,0-.737-.094,3,3,0,0,0-3,3v10.748a3.019,3.019,0,0,0,3.006,3.016,2.94,2.94,0,0,1,3.729-.207v-2.082A.726.726,0,0,1,507.876,331.948Zm-2.271.19a.732.732,0,1,1-1.464,0V321.01a.732.732,0,1,1,1.464,0Z" transform="translate(-471.199 -264.516)"/>
    <path id="Path_11" data-name="Path 11" d="M519.487,258.891l-.017-26.955a.739.739,0,0,1,.736-.736.726.726,0,0,1,.554.262.716.716,0,0,1,.174.474v28.421h2.272v-28.23a3,3,0,0,0-3-3,2.705,2.705,0,0,0-.672.079,2.943,2.943,0,0,0-1.322.681,2.862,2.862,0,0,0-1.107-.5,2.782,2.782,0,0,0-.635-.071v2.074a.723.723,0,0,1,.587.3.767.767,0,0,1,.142.437v28.23l.017,31.578a3,3,0,1,0,6.009,0V267.25h-2.272v24.875a.732.732,0,1,1-1.464,0V265.778h3.736V263.7h-3.736Z" transform="translate(-479.051 -224.504)"/>
    <path id="Path_12" data-name="Path 12" d="M537.3,298.147a2.767,2.767,0,0,0-.729.1v-4.718H534.3v35.853h2.271V300.957a.732.732,0,1,1,1.465,0v28.421h2.272v-28.23A3.011,3.011,0,0,0,537.3,298.147Z" transform="translate(-488.641 -259.137)"/>
    <rect id="Rectangle_3" data-name="Rectangle 3" width="1.939" height="3.348" transform="translate(53.155 66.893)"/>
    <path id="Path_13" data-name="Path 13" d="M560.837,303.526a3.009,3.009,0,0,0-3.007,3v10.748a3.008,3.008,0,0,0,3.007,3,.733.733,0,0,1,.729.737v11.127a.726.726,0,0,1-.729.727.734.734,0,0,1-.737-.727V321.064h-2.27v10.873a3,3,0,1,0,6.006,0V321.2a3,3,0,0,0-3-3,.741.741,0,0,1-.737-.735V306.335a.741.741,0,0,1,.737-.735.733.733,0,0,1,.729.735v11.073h2.27V306.527A3,3,0,0,0,560.837,303.526Z" transform="translate(-501.295 -264.516)"/>
    <path id="Path_14" data-name="Path 14" d="M580.053,298.358h-2.272V312.09a.733.733,0,0,1-.729.735h-.735V293.562h-2.27V329.4h2.27V314.9h.735a.733.733,0,0,1,.729.735V329.4h2.272V315.754a2.986,2.986,0,0,0-.655-1.868,2.953,2.953,0,0,0,.655-1.869Z" transform="translate(-510.016 -259.157)"/>
  </g>
  <g id="Group_6" data-name="Group 6" transform="translate(0 3.911)">
    <g id="Group_5" data-name="Group 5" transform="translate(0 4.087)">
      <path id="Path_15" data-name="Path 15" d="M323.374,236.671l-8.956,8.957a.834.834,0,0,0,1.18,1.18l8.956-8.956a.834.834,0,0,0-1.18-1.18Z" transform="translate(-296.96 -236.429)"/>
      <path id="Path_16" data-name="Path 16" d="M420.175,309.235v-.449l-.224.224Z" transform="translate(-353.846 -275.342)" fill="#ed1f24"/>
      <path id="Path_17" data-name="Path 17" d="M399.326,365.687l-2.368,2.368h2.36l1.188-1.188a.834.834,0,0,0-1.18-1.18Z" transform="translate(-341.481 -305.813)" fill="#ed1f24"/>
      <path id="Path_18" data-name="Path 18" d="M383.162,332.279l-1.795,1.795,3.008,3.008-1.679,1.669-3-3.008-8.841,8.841h2.359L379.7,338.1l1.819,1.829-4.652,4.652h2.409l10.17-10.17,1.82,1.82-3.789,3.8a3.016,3.016,0,0,1,.665.515,3.424,3.424,0,0,1,.591,4.038h5.043V321.8Z" transform="translate(-327.443 -282.343)" fill="#ed1f24"/>
      <path id="Path_19" data-name="Path 19" d="M347.39,365.112l-2.634,2.634h2.36l1.454-1.454a.834.834,0,0,0-1.18-1.18Z" transform="translate(-313.406 -305.504)"/>
      <path id="Path_20" data-name="Path 20" d="M313.592,300.44a.83.83,0,0,0-1.18-.008l-20.755,20.755a.846.846,0,0,0,0,1.188.829.829,0,0,0,1.18-.008l20.755-20.755A.826.826,0,0,0,313.592,300.44Z" transform="translate(-284.719 -270.72)"/>
      <path id="Path_21" data-name="Path 21" d="M299.77,287.4a.838.838,0,0,0-1.18,0l-21.661,21.66v2.36l22.84-22.84A.838.838,0,0,0,299.77,287.4Z" transform="translate(-276.929 -263.71)"/>
    </g>
    <path id="Path_22" data-name="Path 22" d="M343.258,249.4V227.586H331.792l-2.484,2.484,3.008,3.008-1.67,1.67-3.008-3.008-21.187,21.187a.834.834,0,1,0,1.18,1.18L327.638,234.1l1.827,1.828-19.857,19.849a3.413,3.413,0,1,1-4.828-4.827l23.356-23.364h-3.182a3.348,3.348,0,0,1-.93,1.72l-11.051,11.051-1.819-1.828L322.1,227.586h-2.369l-21.411,21.42-1.828-1.828,19.592-19.592h-2.4l-16.127,16.135a.829.829,0,0,0,0,1.18l-1.671,1.67a3.44,3.44,0,0,1-.955-1.861,3.4,3.4,0,0,1-2.21-5.824l8.641-8.641a3.43,3.43,0,0,1,4.835,0,3.25,3.25,0,0,1,.507.673l3.332-3.332h-2.36l-1.438,1.437-1.437-1.437h-3.116l-12.4,12.4-1.82-1.828,10.569-10.569h-2.36l-9.388,9.388-1.828-1.828,7.561-7.561h-2.359l-6.382,6.381-1.828-1.828L286,227.586H276.93v45.78l25.815-25.806,1.819,1.828-3.789,3.789a3.041,3.041,0,0,1,.665.515,3.4,3.4,0,0,1,0,4.827l-22.7,22.708-1.811-1.812v14.5h15.645l24.386-24.394,1.828,1.828-22.566,22.566h2.36l21.386-21.386,1.828,1.828L302.23,293.915h2.4l4.3-4.3a3.412,3.412,0,0,1,4.828.008,3.041,3.041,0,0,1,.515.665l9.622-9.621a.834.834,0,1,0-1.18-1.18L313.8,288.39l-1.819-1.82,8.757-8.758a3.414,3.414,0,0,1,4.828,4.828l-11.275,11.275h2.4l16.2-16.2,9.056-8.932a.827.827,0,0,0,0-1.172l-.59-.59-11.657,11.658-1.828-1.828,15.379-15.38v-2.4l-2.626,2.625-1.828-1.82,4.454-4.453v-2.368l-5.675,5.683a.838.838,0,0,0,0,1.18,3.42,3.42,0,0,1,0,4.827l-8.641,8.641a3.413,3.413,0,1,1-4.827-4.827l8.749-8.75,1.827,1.82-8.907,8.907a.848.848,0,0,0,0,1.189.837.837,0,0,0,1.179-.009l8.949-8.948a.838.838,0,0,0,0-1.18,3.419,3.419,0,0,1,0-4.827Zm-5.875-19,1.829,1.828-2.692,2.692L334.7,233.1Zm-3.872,3.872,1.828,1.828L310.372,261.07l-1.82-1.828Zm-51.322,50.732a3.44,3.44,0,0,1,.008-4.844l20.448-20.447a3.416,3.416,0,1,1,4.827,4.836l-20.447,20.439A3.423,3.423,0,0,1,282.189,285.007ZM313.5,270.576l-11.05,11.05-1.819-1.82,11.2-11.208a.834.834,0,0,0-1.18-1.18L287.8,290.274l-1.828-1.819,22.707-22.707a.828.828,0,0,0,0-1.172l1.67-1.678a3.412,3.412,0,0,1,.948,1.861,3.409,3.409,0,0,1,2.21,5.817Zm7.187-.923-1.57-1.562,2.691-2.692,1.563,1.571Zm-4.3-2.568-1.828-1.828L337.434,242.4a.834.834,0,0,0-1.18-1.18l-22.866,22.858-1.819-1.819,22.7-22.708a.829.829,0,0,0,.008-1.18l1.671-1.67a3.428,3.428,0,0,1,.947,1.861,3.408,3.408,0,0,1,2.21,5.816Z" transform="translate(-276.93 -227.586)"/>
  </g>
</svg>
